<svg xmlns="http://www.w3.org/2000/svg" width="512" height="512" enable-background="new 0 0 512 512" viewBox="0 0 512 512" id="grooming"><path d="M391.047 71.9h-59.381v12h34.719v16.813h-34.719v12h34.719v18h-34.719v12h34.719v18h-34.719v12h34.719v18h-34.719v12h34.719v18h-34.719v12h34.719v18h-34.719v12h34.719v18h-34.719v12h34.719v18h-34.719v12h34.719v18h-34.719v12h34.719v18h-34.719v12h34.719v18h-34.719v12h34.719v15.44h-34.719v12h59.381c15.473 0 28.059-12.587 28.059-28.059V99.958C419.105 84.486 406.52 71.9 391.047 71.9zM407.105 412.095c0 8.854-7.203 16.059-16.059 16.059h-12.662V83.9h12.662c8.855 0 16.059 7.204 16.059 16.058V412.095zM246.769 338.398c-15.108 0-28.174 8.895-34.248 21.72l-11.454-45.345-1.973-9.562c7.547-3.926 12.716-11.815 12.716-20.894 0-5.399-1.832-10.376-4.9-14.352 12.122-13.129 20.697-29.182 24.837-46.591l21.292-105.909-25.664-55.12-39.198 189.964L148.979 62.347l-25.664 55.12 21.247 105.703.045.206c4.151 17.456 12.762 33.548 24.936 46.697-3.019 3.959-4.816 8.896-4.816 14.246 0 9.013 5.094 16.855 12.552 20.81l-3.113 15.087-9.429 39.329c-6.189-12.516-19.087-21.146-33.969-21.146-20.884 0-37.875 16.99-37.875 37.874v35.506c0 20.885 16.99 37.875 37.875 37.875s37.875-16.99 37.875-37.875v-17.057l16.755-69.887.064.013.415-2.009 2.362-9.851 1.125 4.454 1.528 7.405.325-.066 17.677 69.979v17.019c0 20.885 16.99 37.875 37.875 37.875 20.884 0 37.876-16.99 37.876-37.875v-35.506C284.645 355.389 267.652 338.398 246.769 338.398zM156.644 411.778c0 14.268-11.607 25.875-25.875 25.875-14.267 0-25.875-11.607-25.875-25.875v-35.506c0-14.267 11.607-25.874 25.875-25.874 14.268 0 25.875 11.607 25.875 25.874V411.778zM231.801 100.281l8.697 18.681-20.45 101.737c-3.619 15.143-11.021 29.128-21.479 40.626L231.801 100.281zM156.307 220.699l-20.45-101.737 8.697-18.681 33.23 161.044C167.328 249.827 159.926 235.842 156.307 220.699zM191.543 295.379c-1.04.309-2.137.48-3.275.48-1.208 0-2.373-.188-3.469-.535-1.876-.592-3.541-1.657-4.869-3.048-1.979-2.072-3.204-4.873-3.204-7.958 0-1.942.487-3.771 1.338-5.379 1.238-2.338 3.251-4.205 5.7-5.247 1.384-.589 2.906-.915 4.503-.915 1.522 0 2.974.303 4.306.842 2.493 1.007 4.56 2.854 5.836 5.195.892 1.637 1.399 3.512 1.399 5.504 0 3.164-1.282 6.034-3.352 8.121C195.11 293.799 193.426 294.82 191.543 295.379zM272.645 411.778c0 14.268-11.607 25.875-25.876 25.875-14.267 0-25.875-11.607-25.875-25.875v-35.506c0-14.267 11.607-25.874 25.875-25.874 14.269 0 25.876 11.607 25.876 25.874V411.778z"></path></svg>