<svg xmlns="http://www.w3.org/2000/svg" width="512" height="512" enable-background="new 0 0 512 512" viewBox="0 0 512 512" id="pet-box"><path d="M420.345,273.961L390.29,151.947h-47.84v-0.062c-12.878,0-23.354-10.477-23.354-23.354v-13.274H195.379v13.274
		c0,12.877-10.477,23.354-23.354,23.354h-2.475v0.062h-47.84L91.656,273.961H61.505v46.49h30.632l30.196,76.293h267.334
		l30.196-76.293h30.632v-46.49H420.345z M207.379,128.531v-1.274h99.717v1.274c0,8.975,3.368,17.174,8.898,23.416H198.48
		C204.012,145.706,207.379,137.506,207.379,128.531z M131.112,163.947h249.775l27.044,109.797H104.068L131.112,163.947z
		 M381.511,384.744H130.489l-25.25-63.797h40.975h192h18h12h38.547L381.511,384.744z M438.495,308.451H73.505v-22.49h364.99V308.451
		z"></path><rect width="12" height="65.021" x="146.214" y="186.571"></rect><rect width="12" height="65.021" x="186.214" y="186.571"></rect><rect width="12" height="65.021" x="226.214" y="186.571"></rect><rect width="12" height="65.021" x="266.214" y="186.571"></rect><rect width="12" height="65.021" x="306.214" y="186.571"></rect><rect width="12" height="65.021" x="346.214" y="186.571"></rect></svg>