<svg xmlns="http://www.w3.org/2000/svg" width="512" height="512" enable-background="new 0 0 512 512" viewBox="0 0 512 512" id="vet-app"><path d="M235.038 289.766c0 16.969 14.561 30.772 32.46 30.772h38.538c17.898 0 32.46-13.804 32.46-30.772 0-11.543-6.754-22.024-17.625-27.352h-.001c-4.934-2.418-9.382-6.133-12.864-10.742-5.07-6.712-13.258-10.719-21.902-10.719-8.951 0-17.305 4.233-22.345 11.323-3.03 4.264-7.369 8.03-12.546 10.892C241.236 268.686 235.038 278.877 235.038 289.766zM257.02 273.67c6.838-3.779 12.396-8.639 16.521-14.441 2.792-3.929 7.489-6.275 12.563-6.275 4.904 0 9.513 2.225 12.328 5.953 4.609 6.102 10.543 11.041 17.158 14.283 6.727 3.297 10.906 9.648 10.906 16.576 0 10.352-9.179 18.772-20.46 18.772h-38.538c-11.282 0-20.46-8.421-20.46-18.772C247.038 283.242 250.862 277.074 257.02 273.67zM234.561 220.571c-8.308 0-15.067 6.759-15.067 15.067v10.695c0 8.308 6.76 15.067 15.067 15.067 8.309 0 15.067-6.759 15.067-15.067v-10.695C249.628 227.33 242.869 220.571 234.561 220.571zM237.628 246.333c0 1.663-1.404 3.067-3.067 3.067-1.662 0-3.067-1.405-3.067-3.067v-10.695c0-1.663 1.405-3.067 3.067-3.067 1.663 0 3.067 1.405 3.067 3.067V246.333zM267.482 236.956c8.309 0 15.068-6.759 15.068-15.067v-10.695c0-8.308-6.76-15.067-15.068-15.067-8.308 0-15.067 6.759-15.067 15.067v10.695C252.415 230.197 259.175 236.956 267.482 236.956zM264.416 211.194c0-1.663 1.404-3.067 3.066-3.067 1.663 0 3.068 1.405 3.068 3.067v10.695c0 1.663-1.405 3.067-3.068 3.067-1.662 0-3.066-1.405-3.066-3.067V211.194zM305.582 236.956c8.309 0 15.068-6.759 15.068-15.067v-10.695c0-8.308-6.76-15.067-15.068-15.067-8.308 0-15.066 6.759-15.066 15.067v10.695C290.516 230.197 297.274 236.956 305.582 236.956zM302.516 211.194c0-1.663 1.404-3.067 3.066-3.067 1.663 0 3.068 1.405 3.068 3.067v10.695c0 1.663-1.405 3.067-3.068 3.067-1.662 0-3.066-1.405-3.066-3.067V211.194zM338.394 261.4c8.308 0 15.067-6.759 15.067-15.067v-10.695c0-8.308-6.76-15.067-15.067-15.067s-15.067 6.759-15.067 15.067v10.695C323.326 254.641 330.086 261.4 338.394 261.4zM335.326 235.638c0-1.663 1.404-3.067 3.067-3.067s3.067 1.405 3.067 3.067v10.695c0 1.663-1.404 3.067-3.067 3.067s-3.067-1.405-3.067-3.067V235.638z"></path><rect width="50.402" height="12" x="262.221" y="108.071"></rect><path d="M352.859,83.809H221.983c-0.754,0-1.499,0.037-2.239,0.09v-9.456h-61.567v29.688h-29.688v61.567h29.688v29.688h33.154
		v161.959v12v37.562c0,16.9,13.751,30.65,30.652,30.65h130.876c16.901,0,30.652-13.75,30.652-30.65V114.46
		C383.512,97.559,369.761,83.809,352.859,83.809z M191.331,183.386h-21.154v-29.688h-29.688v-37.567h29.688V86.443h37.567v0.887
		v15.11v13.69h29.688v14.401v6v6v11.167h-29.688v29.688h-4.413H191.331z M371.512,406.906c0,10.283-8.367,18.65-18.652,18.65
		H221.983c-10.285,0-18.652-8.367-18.652-18.65v-18.375h168.181V406.906z M371.512,376.531H203.331v-7.187v-12V195.386h16.413
		v-29.688h29.688v-23.167h122.08V376.531z M371.512,130.532h-122.08v-26.401h-29.688v-8.174c0.735-0.088,1.479-0.147,2.239-0.147
		h130.876c10.285,0,18.652,8.367,18.652,18.651V130.532z"></path></svg>